<svg xmlns="http://www.w3.org/2000/svg" version="1.1" xmlns:xlink="http://www.w3.org/1999/xlink" xmlns:svgjs="http://svgjs.com/svgjs" width="560" height="1440" preserveAspectRatio="none" viewBox="0 0 560 1440">
    <g mask="url(&quot;#SvgjsMask1049&quot;)" fill="none">
        <path d="M535.8158706258408 301.12907236428504L529.0844462317882 170.30034235918538 431.9692289423476 230.98466524737165z" fill="rgba(56, 163, 165, 0.2)" class="triangle-float1"></path>
        <path d="M52.75200854922895 1351.957596649464L92.1331093277787 1182.1179361975505-54.3684192725961 1224.12657353032z" fill="rgba(56, 163, 165, 0.2)" class="triangle-float1"></path>
        <path d="M284.30228105014726 535.4000568156939L212.7333012116992 416.28927209780693 165.19149633226027 606.969036654142z" fill="rgba(56, 163, 165, 0.2)" class="triangle-float2"></path>
        <path d="M134.44006003585184 322.2307885444017L221.65275357085187 319.1852541767115 173.4781052518165 189.8889810580566z" fill="rgba(56, 163, 165, 0.2)" class="triangle-float3"></path>
        <path d="M31.8640910649798 533.896817821472L93.0304699320193 678.3784560887642 177.46939116441445 570.3015654259495z" fill="rgba(56, 163, 165, 0.2)" class="triangle-float3"></path>
        <path d="M348.31545458013846 912.8085679389749L296.19271162871814 942.9016476128791 367.3937026152846 1006.0392222030574z" fill="rgba(56, 163, 165, 0.2)" class="triangle-float2"></path>
        <path d="M338.0499070402192 202.80056427951726L407.9204650994841 46.27036588173999 258.64573695904187 59.33021234494299z" fill="rgba(56, 163, 165, 0.2)" class="triangle-float2"></path>
        <path d="M537.3851887887676 760.9337584130226L433.37287355113517 893.8022503788097 579.0606285975712 916.8769239239776z" fill="rgba(56, 163, 165, 0.2)" class="triangle-float3"></path>
        <path d="M352.1359327663308 754.0690183003496L447.71492192786565 802.7689457151038 472.9753184692295 635.0504982654244z" fill="rgba(56, 163, 165, 0.2)" class="triangle-float3"></path>
        <path d="M258.1202723557449 1349.0042494999157L347.3136643818554 1211.6584701151291 120.7744929709583 1259.810857473805z" fill="rgba(56, 163, 165, 0.2)" class="triangle-float1"></path>
        <path d="M400.3140792098943 585.8281413567263L541.5501473924041 528.9215784297446 438.10623545562623 445.1543502121113z" fill="rgba(56, 163, 165, 0.2)" class="triangle-float3"></path>
        <path d="M180.81497941537543 1433.0330139213384L223.23799615189859 1302.8905444988895 105.77973411074873 1325.7221177852275z" fill="rgba(56, 163, 165, 0.2)" class="triangle-float1"></path>
        <path d="M438.67560838690434 1223.6580854059866L474.1170013426469 1285.0443786963465 548.4757448003153 1201.1891426175525z" fill="rgba(56, 163, 165, 0.2)" class="triangle-float2"></path>
        <path d="M154.2587135619729 529.3553066727293L243.87137602519635 507.0123605113137 131.91576740055734 439.74264420950584z" fill="rgba(56, 163, 165, 0.2)" class="triangle-float2"></path>
        <path d="M540.1659117070764 786.9363898294324L427.4494167110115 862.9646256929049 616.1941475705488 899.6528848254973z" fill="rgba(56, 163, 165, 0.2)" class="triangle-float3"></path>
        <path d="M49.71456772312275 388.2043532832156L17.14336522278724 274.20514453204134-56.1418404029676 347.49035015779623z" fill="rgba(56, 163, 165, 0.2)" class="triangle-float2"></path>
        <path d="M134.90823247385686 1419.4493965456072L297.0521719520283 1463.0613976837276 261.5436324772174 1320.6444245804512z" fill="rgba(56, 163, 165, 0.2)" class="triangle-float3"></path>
        <path d="M288.4329757704855 969.4015908360155L267.9647488081961 1040.7827811841175 385.27064781149386 1035.7945264535006z" fill="rgba(56, 163, 165, 0.2)" class="triangle-float3"></path>
        <path d="M310.78451289302245 1242.5193733137216L310.78451289302245 1084.1664868891864 152.4316264684872 1242.5193733137216z" fill="rgba(56, 163, 165, 0.2)" class="triangle-float3"></path>
        <path d="M353.8740105765511 214.15670746730333L346.0942016568016 65.70911006515664 205.4264131744044 221.9365163870528z" fill="rgba(56, 163, 165, 0.2)" class="triangle-float1"></path>
    </g>
    <defs>
        <mask id="SvgjsMask1049">
            <rect width="560" height="1440" fill="#ffffff"></rect>
        </mask>
        <style>
            @keyframes float1 {
                0%{transform: translate(0, 0)}
                50%{transform: translate(-10px, 0)}
                100%{transform: translate(0, 0)}
            }

            .triangle-float1 {
                animation: float1 5s infinite;
            }

            @keyframes float2 {
                0%{transform: translate(0, 0)}
                50%{transform: translate(-5px, -5px)}
                100%{transform: translate(0, 0)}
            }

            .triangle-float2 {
                animation: float2 4s infinite;
            }

            @keyframes float3 {
                0%{transform: translate(0, 0)}
                50%{transform: translate(0, -10px)}
                100%{transform: translate(0, 0)}
            }

            .triangle-float3 {
                animation: float3 6s infinite;
            }
        </style>
    </defs>
</svg>