<svg width="338" height="341" viewBox="0 0 338 341" fill="none" xmlns="http://www.w3.org/2000/svg">
<path class="letter" d="M152.611 63.1368L158.336 16.9448L186.033 20.3777L185.418 25.3398L163.315 22.6001L161.38 38.208L181.409 40.6904L180.794 45.6524L160.765 43.17L158.204 63.8301L152.611 63.1368Z" fill="white"/>
<path class="letter" d="M197.08 73.5997C193.954 72.3592 191.531 70.5991 189.811 68.3193C188.111 66.031 187.142 63.3974 186.906 60.4184C186.69 57.431 187.241 54.2755 188.559 50.9518C189.878 47.628 191.646 44.9389 193.863 42.8845C196.1 40.8215 198.592 39.5118 201.339 38.9555C204.106 38.3907 206.954 38.6894 209.883 39.8516C211.574 40.5222 213.131 41.466 214.555 42.6831C215.979 43.9002 217.116 45.4107 217.965 47.2146C218.82 49.0045 219.238 51.0938 219.219 53.4826C219.2 55.8714 218.59 58.5797 217.389 61.6077L216.551 63.7202L191.539 53.7964L193.248 49.4868L213.191 57.3991C213.917 55.5682 214.199 53.7893 214.037 52.0622C213.888 50.3407 213.31 48.7991 212.302 47.4373C211.308 46.0811 209.909 45.0454 208.107 44.3302C206.121 43.5423 204.207 43.3535 202.365 43.7638C200.543 44.1656 198.935 44.9945 197.54 46.2505C196.145 47.5064 195.093 49.0287 194.383 50.8173L193.243 53.6903C192.271 56.1409 191.869 58.3858 192.038 60.4252C192.227 62.4561 192.906 64.2169 194.075 65.7076C195.249 67.1843 196.843 68.3221 198.857 69.1212C200.167 69.6408 201.423 69.9271 202.624 69.98C203.846 70.0244 204.992 69.8271 206.062 69.388C207.139 68.9348 208.112 68.2287 208.981 67.2696L213.261 70.5327C212.106 71.9652 210.684 73.0637 208.995 73.828C207.312 74.5784 205.453 74.9493 203.419 74.9409C201.39 74.9185 199.277 74.4714 197.08 73.5997Z" fill="white"/>
<path class="letter" d="M214.092 80.9511L233.369 51.8469L237.689 54.7083L234.777 59.1042L235.08 59.305C236.565 58.2164 238.299 57.6838 240.282 57.7072C242.266 57.7307 244.129 58.3197 245.872 59.4743C246.201 59.6918 246.607 59.97 247.092 60.309C247.576 60.6479 247.936 60.9137 248.172 61.1062L245.16 65.6538C245.033 65.5155 244.724 65.2286 244.231 64.793C243.759 64.3532 243.226 63.9367 242.632 63.5434C241.217 62.6064 239.758 62.0666 238.253 61.924C236.769 61.7772 235.362 62.0083 234.031 62.6175C232.722 63.2223 231.632 64.1816 230.762 65.4954L218.564 83.9129L214.092 80.9511Z" fill="white"/>
<path class="letter" d="M230.155 89.7512L256.401 66.7332L259.817 70.629L255.717 74.2256L256.016 74.5673C257.897 73.8852 259.759 73.814 261.603 74.3535C263.458 74.883 265.134 76.0021 266.633 77.7108C268.151 79.4422 269.022 81.2279 269.245 83.0677C269.49 84.909 269.196 86.7687 268.364 88.6468L268.604 88.9202C270.549 88.4034 272.51 88.4674 274.486 89.1123C276.474 89.7471 278.292 91.0043 279.94 92.8839C281.998 95.2304 282.947 97.7942 282.786 100.575C282.637 103.346 281.019 106.085 277.932 108.793L260.366 124.198L256.83 120.166L274.395 104.76C276.332 103.062 277.251 101.319 277.153 99.5298C277.056 97.7411 276.378 96.1292 275.119 94.6939C273.501 92.8485 271.689 91.9084 269.683 91.8737C267.689 91.8289 265.843 92.5509 264.146 94.0394L247.059 109.025L243.463 104.924L261.438 89.1593C262.93 87.8506 263.707 86.3125 263.769 84.545C263.843 82.7675 263.21 81.1156 261.872 79.5891C260.953 78.5411 259.814 77.8063 258.457 77.3845C257.109 76.9741 255.695 76.9244 254.215 77.2354C252.756 77.5479 251.382 78.2685 250.095 79.3974L233.692 93.7837L230.155 89.7512Z" fill="white"/>
<path class="letter" d="M265.989 141.361C264.655 138.273 264.187 135.315 264.583 132.487C264.999 129.667 266.177 127.12 268.116 124.847C270.076 122.581 272.697 120.74 275.98 119.322C279.263 117.905 282.414 117.254 285.435 117.369C288.475 117.492 291.163 118.328 293.499 119.878C295.855 121.435 297.657 123.66 298.907 126.554C299.627 128.223 300.061 129.991 300.207 131.859C300.354 133.727 300.089 135.599 299.414 137.475C298.752 139.345 297.57 141.117 295.868 142.793C294.166 144.469 291.819 145.953 288.828 147.244L286.742 148.145L276.075 123.44L280.331 121.603L288.836 141.299C290.644 140.519 292.102 139.46 293.208 138.124C294.321 136.802 295.002 135.303 295.252 133.627C295.508 131.965 295.252 130.244 294.483 128.464C293.636 126.502 292.417 125.015 290.824 124.003C289.252 122.999 287.528 122.447 285.654 122.349C283.78 122.251 281.959 122.583 280.193 123.346L277.355 124.571C274.935 125.616 273.063 126.919 271.74 128.481C270.437 130.05 269.672 131.775 269.445 133.656C269.231 135.53 269.553 137.462 270.412 139.451C270.971 140.745 271.656 141.835 272.468 142.723C273.3 143.618 274.25 144.288 275.318 144.735C276.399 145.176 277.587 145.365 278.88 145.301L279.598 150.635C277.769 150.831 275.986 150.602 274.252 149.949C272.531 149.289 270.954 148.237 269.522 146.792C268.104 145.342 266.926 143.531 265.989 141.361Z" fill="white"/>
<path class="letter" d="M272.751 158.552L306.965 151.619L307.994 156.698L302.826 157.745L302.898 158.101C304.718 158.382 306.32 159.232 307.705 160.652C309.091 162.072 309.991 163.806 310.406 165.856C310.484 166.242 310.575 166.726 310.677 167.308C310.78 167.89 310.846 168.333 310.877 168.636L305.531 169.719C305.539 169.532 305.523 169.11 305.483 168.453C305.461 167.809 305.379 167.137 305.237 166.439C304.9 164.776 304.25 163.362 303.288 162.197C302.343 161.043 301.185 160.211 299.814 159.7C298.46 159.202 297.011 159.109 295.467 159.422L273.816 163.809L272.751 158.552Z" fill="white"/>

<style>
.letter{
    fill: #A33A38;
}



</style>

</svg>
