<svg width="742" height="884" viewBox="0 0 742 884" fill="none" xmlns="http://www.w3.org/2000/svg">
<path fill-rule="evenodd" clip-rule="evenodd" d="M378.511 116.131C467.274 116.131 559.085 183.742 591.622 226.887C618.978 263.161 633.707 427.19 633.707 538.042C633.707 561.226 646.727 604.93 642.927 627.106C629.004 708.37 568.345 776.524 448.288 776.524C328.231 776.524 242.152 729.759 152.917 604.203C109.619 604.203 88.6357 571.574 88.331 520.082C88.0263 468.591 130.124 449.856 130.124 449.856C130.124 449.856 115.114 246.648 152.917 193.743C190.72 140.837 289.747 116.131 378.511 116.131Z" fill="#FFC298"/>
<path fill-rule="evenodd" clip-rule="evenodd" d="M341.157 87.3977C397.2 81.8213 452.118 86.5067 507.348 96.2017C511.569 96.9529 513.961 99.6735 514.851 102.944C540.865 104.112 566.909 105.987 592.889 107.385C602.317 107.892 607.662 117.046 603.363 125.313C602.505 126.955 601.612 128.553 600.706 130.15L601.845 129.781C609.66 127.317 618.103 126.103 625.718 130.014C635.41 134.991 639.211 145.973 637.069 156.081C636.52 158.662 635.599 161.136 634.552 163.549C636.678 163.411 638.82 163.457 640.946 163.733C652.264 165.208 660.674 173.734 661.268 185.086C662.144 202.229 650.904 219.62 637.663 231.893C639.584 235.781 640.32 240.359 639.522 244.998C637.927 254.17 631.052 259.661 623.082 263.244C626.406 273.615 627.977 284.457 627.05 295.538C626.74 299.237 623.448 302.293 619.973 303.042C632.926 338.089 639.483 375.717 644.197 412.382C647.558 438.468 649.215 464.706 649.417 490.989C649.516 502.855 649.317 514.735 648.81 526.603L648.606 531.053C647.98 543.882 647.949 557.353 645.604 570.044C653.608 583.423 656.829 600.03 658.189 615.022C659.877 633.58 657.204 652.721 651.246 670.373C628.766 737.074 560.922 779.166 492.777 790.105C429.701 800.228 356.711 786.602 319.849 730.299C319.271 729.408 320.506 728.672 321.225 729.256C347.598 750.331 378.189 759.733 411.426 764.311C468.892 772.208 533.485 758.811 579.601 723.295C601.737 706.244 617.698 681.419 624.719 654.702C628.299 641.047 629.534 626.805 628.125 612.75C626.687 598.494 620.264 586.327 616.215 572.855C614.855 568.306 616.293 564.082 619.122 561.072C619.918 550.133 621.796 539.103 622.513 528.198C623.31 515.799 623.797 503.402 623.969 490.989C624.297 465.242 623.203 439.45 620.998 413.812C616.965 366.864 606.257 321.056 599.972 274.507C597.645 276.558 594.31 277.4 590.814 275.608L590.452 275.414L588.545 274.34C588.435 274.34 588.31 274.355 588.199 274.369C575.148 275.615 561.61 273.833 549.103 270.006C536.017 266.014 523.872 259.869 513.022 251.681C510.96 261.957 510.098 272.341 510.084 282.818C510.069 289.362 503.018 292.759 497.422 289.963C472.612 277.58 448.913 263.31 426.418 247.272C423.79 260.499 421.165 273.724 418.522 286.966C417.507 292.068 410.893 294.126 406.656 291.699C389.806 282.065 375.252 269.455 363.402 254.46C361.036 258.906 358.664 263.351 356.275 267.786L352.678 274.431C349.13 280.959 344.377 288.181 336.608 290.269C328.385 292.481 321.521 287.244 318.755 279.93C317.911 277.658 317.129 275.322 316.41 272.971C309.405 288.688 301.497 304.05 292.555 318.705C279.142 340.687 263.039 360.274 246.985 380.367C242.108 386.467 233.76 380.644 233.088 374.715C232.697 371.228 232.369 367.726 232.086 364.237C222.731 382.788 212.97 401.166 202.335 419.01L203.858 424.874C208.246 442.199 211.89 459.648 215.851 477.065C217.13 482.684 214.091 490.719 207.409 491.676C199.427 492.819 191.875 496.827 183.699 494.069C174.784 491.061 173.022 483.489 168.814 476.312C167.974 474.882 166.997 473.569 165.947 472.321L165.679 472.662C165.023 473.509 163.46 472.587 163.85 471.619L164.308 470.501C160.693 466.729 156.365 463.583 152.387 460.199C142.932 458.634 132.297 460.348 125.783 464.122C110.948 472.724 104.133 490.451 103.993 506.752C103.821 525.832 109.838 547.277 119.999 563.592C124.472 570.766 130.6 577.247 138.696 580.428C146.733 583.592 155.44 582.61 163.616 585.589C169.025 587.572 172.355 593.471 169.087 598.815C168.869 599.185 168.618 599.522 168.382 599.877L170.814 603.048C172.487 605.245 174.231 607.597 175.856 610.045C180.015 614.747 184.392 619.279 188.628 623.903C196.459 632.427 204.058 641.185 211.763 649.833C219.034 657.991 226.725 665.655 234.651 673.198C242.139 680.343 251.488 686.348 258.366 693.969C265.055 701.405 266.87 714.384 255.863 718.687C243.686 723.459 232.907 712.275 224.71 704.819L224.365 704.506C209.339 690.918 195.769 675.39 184.994 658.294C174.32 665.434 158.881 666.116 148.252 658.978C142.659 655.222 138.368 648.909 136.282 642.043C134.316 642.476 132.35 642.729 130.434 642.7C129.447 643.262 128.458 643.809 127.457 644.319C119.53 648.373 109.792 646.562 106.166 637.942C102.863 630.118 106.266 621.231 109.241 613.692L109.855 612.134C111.543 607.834 113.404 603.149 115.717 598.74C109.277 593.978 103.772 588.062 99.1153 581.335C83.4669 558.676 75.6506 525.538 79.1054 498.503C81.1846 482.188 88.9837 465.29 101.756 454.289L101.288 453.091C97.7084 444.167 94.4552 435.21 92.3463 425.779C89.8764 414.749 88.6711 403.32 87.5783 392.09C85.2647 368.371 85.89 344.114 88.9697 320.487C94.7538 276.014 109.417 232.355 135.446 195.348C128.066 186.667 122.22 176.451 125.267 164.701C126.66 159.307 129.832 154.193 134.617 151.104C137.258 149.4 140.401 149.139 143.043 147.726L143.838 147.296C144.998 146.631 144.11 146.701 143.418 143.609C140.683 131.256 142.949 119.322 156.784 115.22C169.807 111.364 182.125 119.552 189.832 129.307C209.998 115.249 236.574 107.892 259.945 101.64C286.52 94.5564 313.782 90.1337 341.157 87.3977ZM123.331 501.712C123.236 491.65 132.944 485.444 142.497 487.089C148.911 488.186 154.263 491.948 159.287 495.837L161.737 497.741C167.856 502.462 174.881 507.551 178.529 514.234C183.875 524.096 172.574 537.368 162.022 530.455C154.784 525.688 150.144 518.05 145.396 510.955L144.904 510.223C142.747 507.043 140.855 503.663 137.899 501.113L137.261 500.564C136.289 499.75 135.246 499.007 133.991 498.655C131.57 497.971 127.087 498.929 126.02 501.761L125.924 502.05C125.534 503.48 123.347 503.172 123.331 501.712Z" fill="black"/>
<path fill-rule="evenodd" clip-rule="evenodd" d="M517.17 655.183C505.63 658.46 493.243 658.753 481.479 655.368C470.81 652.298 459.854 645.541 452.002 636.6C445.026 628.657 440.508 619.004 440.685 608.7C440.706 607.524 441.135 606.541 441.795 605.779C442.505 604.958 443.498 604.395 444.561 604.15C445.654 603.898 446.81 603.988 447.795 604.426C448.686 604.823 449.449 605.497 449.926 606.482C451.133 608.037 452.335 609.569 453.542 611.058C463.245 622.807 472.642 631.588 487.233 634.737C495.15 636.446 503.057 635.688 510.311 633.08C518.077 630.289 525.097 625.382 530.598 619.101C533.084 616.263 536.019 615.105 538.889 615.085C542.141 615.063 545.356 616.545 547.778 618.913C550.158 621.242 551.752 624.406 551.897 627.715C552.023 630.62 551.057 633.654 548.486 636.361C540.019 645.278 529.044 651.81 517.17 655.183ZM516.814 508.027C528.644 515.078 546.669 531.521 533.943 549.001C518.963 564.415 497.395 546.742 486.767 538.75C476.912 532.555 465.839 548.487 474.983 555.72C551.782 611.476 582.949 509.871 522.797 499.737C516.174 498.62 513.715 505.846 516.814 508.027ZM406.152 477C402.35 474.616 397.877 473.797 392.92 476.009C389.047 477.736 382.253 483.495 377.525 491.065C374.29 496.244 371.996 502.319 372.474 508.647C372.585 510.117 372.031 511.201 371.157 512.002C370.467 512.635 369.471 513.1 368.3 513.245C367.307 513.369 366.194 513.257 365.29 512.981C363.57 512.454 362.659 511.36 362.316 510.466C359.006 501.845 360.432 492.224 364.142 483.544C369.149 471.831 378.242 462.019 384.2 458.855C394.395 453.44 406.422 453.191 416.631 458.708C425.321 463.403 430.756 470.984 436.16 478.711C437.309 480.353 438.449 481.984 439.628 483.586C441.99 486.795 442.225 489.979 441.31 492.709C440.297 495.733 437.713 498.285 434.482 499.621C431.496 500.855 428.031 501.029 424.964 499.761C422.373 498.689 419.995 496.6 418.491 493.056C415.957 487.087 411.736 480.502 406.152 477V477ZM599.257 490.28C596.654 491.61 594.616 492.011 591.728 491.163C590.13 490.692 588.552 489.791 587.316 488.578C586.091 487.377 585.207 485.883 584.863 484.226C584.018 480.136 581.736 476.308 578.484 473.812C575.705 471.679 572.197 470.548 568.305 471.186C564.106 471.874 560.106 474.515 557.35 477.628C556.429 478.67 555.707 479.853 554.982 481.028C553.624 483.226 552.304 485.269 550.432 486.883C549.722 487.497 548.653 487.923 547.617 487.923C547.196 487.923 546.769 487.855 546.362 487.731C542.182 483.618 541.378 480.497 541.513 477.402C541.655 474.156 542.959 470.87 545.068 467.804C550.015 460.611 559.407 454.714 565.745 453.379C574.424 451.549 583.044 453.745 589.955 458.499C597.066 463.39 602.335 470.985 603.978 479.543C604.373 481.604 604.205 483.829 603.405 485.758C602.623 487.643 601.26 489.257 599.257 490.28ZM425.295 400.317C420.086 405.294 413.921 406.064 407.684 406.75C404.218 407.135 401.452 407.445 398.73 408.047C391.247 409.703 383.851 412.198 377.103 415.79C370.049 419.546 362.362 424.075 356.832 429.878C355.517 431.258 354.277 432.707 353.036 434.159C351.904 435.483 350.814 436.758 349.664 437.987C348.345 439.399 347.091 440.878 345.845 442.354C345.074 443.599 344.922 443.905 344.766 444.224C344.533 444.703 344.261 445.239 343.951 445.815C343.526 446.602 343.028 447.464 342.507 448.246C341.639 449.675 341.174 450.069 340.771 450.245C340.104 450.536 339.471 450.68 338.857 450.602C338.281 450.529 337.739 450.258 337.203 449.814C334.529 447.598 333.74 443.962 333.821 440.103C333.944 434.245 336.147 427.76 338.178 423.774C342.9 414.511 349.449 404.882 357.324 397.968C366.31 390.077 376.141 384.103 387.433 379.986C394.45 377.427 402.574 375.078 410.219 375.375C415.722 375.588 420.976 377.192 425.314 381.198C427.978 383.657 429.257 387.155 429.257 390.65C429.257 394.215 427.929 397.801 425.295 400.317ZM609.851 445.888C609.52 446.421 609.061 446.788 608.551 447.008C608.016 447.239 607.419 447.306 606.846 447.211C606.276 447.117 605.734 446.863 605.304 446.476C604.891 446.104 604.577 445.612 604.437 445.008C600.979 430.114 594.264 419.032 579.931 411.886C572.881 408.371 564.774 406.137 557.099 404.356C554.869 403.839 552.512 403.504 550.139 403.164C542.701 402.099 535.21 400.879 530.361 394.984C527.439 391.432 526.213 386.891 526.906 382.737C527.559 378.826 529.889 375.24 534.126 373.091C544.673 367.744 557.779 372.991 568.43 377.461C569.22 377.793 569.996 378.118 570.755 378.432C581.17 382.743 590.67 388.434 598.479 396.573C604.675 403.029 610.415 412.574 612.727 422.393C614.651 430.562 614.198 438.901 609.851 445.888Z" fill="black"/>
<path fill-rule="evenodd" clip-rule="evenodd" d="M368.678 671.239C381.516 641.304 409.537 619.303 441.798 611.26C465.489 605.368 490.351 605.556 514.501 607.895C527.154 609.111 540.726 610.108 552.651 614.785C562.833 618.78 571.131 626.333 577.371 635.198C584.798 645.703 589.85 657.726 593.397 670.05C593.9 671.802 594.374 673.567 594.816 675.341C593.273 684.639 589.998 692.553 581.346 698.399C572.902 704.107 562.827 706.442 552.784 707.272C551.799 706.801 550.847 706.317 549.974 705.821C534.323 696.904 523.308 675.831 503.554 678.683C485.925 681.229 474.32 703.306 463.837 716.252C430.185 720.155 396.559 710.09 369.178 690.938C367.788 684.383 367.707 677.773 368.678 671.239M617.688 648.531C614.996 641.012 611.605 633.73 607.586 626.87C594.3 604.183 573.903 586.107 549.689 575.774C492.41 551.364 418.297 568.571 372.04 608.606C356.239 622.291 340.262 642.402 335.43 664.035C333.987 664.319 332.625 665.067 331.504 666.119C298.084 645.177 263.667 625.028 236.736 595.998C217.179 574.905 203.575 549.944 195.246 522.514C194.565 520.256 190.906 520.587 191.017 523.084C191.049 523.669 191.081 524.252 191.112 524.837C190.764 523.762 189.117 524.315 188.99 525.358C184.509 558.679 178.903 594.007 184.065 627.502C187.153 647.488 196.275 662.12 208.469 677.919C221.534 694.855 236.324 710.607 251.448 725.713C261.045 735.302 271.069 746.361 282.819 753.392C296.486 761.56 311.989 767.771 326.574 774.074C341.413 780.504 356.473 786.445 371.818 791.595C402.493 801.928 434.197 809.069 466.455 812.198C492.283 814.694 521.802 817.413 546.554 807.742C565.525 800.332 580.839 786.936 592.985 770.819C606.208 753.266 616.662 733.271 622.44 712.187C628.445 690.286 618.953 652.062 617.688 648.531" fill="black"/>
<path fill-rule="evenodd" clip-rule="evenodd" d="M683.304 467.957C668.368 567.025 564.106 577.981 545.581 479.63C548.554 478.354 550.693 475.84 550.246 470.961C550.141 449.528 556.926 426.875 576.643 414.956C597.018 402.657 620.863 401.437 644.441 401.748C689.437 400.697 688.49 437.577 683.304 467.957M529.259 424.871C515.138 424.287 497.272 424.775 484.622 433.212C481.144 424.029 472.108 414.223 462.978 408.98C496.914 409.954 531.845 406.679 566.034 404.137C557.85 409.607 550.237 417.826 545.288 427.327C540.696 424.926 534.12 425.15 529.259 424.871M467.015 478.46C427.859 610.628 330.118 553.021 319.463 536.083C300.242 508.053 296.627 439.916 313.369 421.698C337.334 405.224 371.262 409.464 399.573 409.06C451.585 409.748 488.525 425.006 467.015 478.46M729.538 417.671C718.899 416.306 707.531 416.031 697.639 420.625C694.594 407.931 685.033 397.319 674.238 392.649C672.931 391.042 673.127 390.179 668.664 390.42C641.257 382.342 610.588 386.616 584.25 394.899C542.655 398.334 499.014 401.043 457.069 405.776C417.776 388.472 299.197 385.936 291.828 428.585C282.559 427.226 266.772 420.072 258.983 429.776C201.849 420.277 142.812 433.478 85.43 439.357C70.9861 441.966 63.5465 470.075 79.9423 469.691C89.16 467.238 79.6587 452.188 92.0707 451.055C147.435 445.126 201.589 436.713 257.52 435.729C255.574 445.199 294.513 445.815 295.088 440.285C295.171 440.326 295.259 440.354 295.344 440.391C285.722 475.555 294.407 526.16 311.796 547.965C336.159 576.517 397.326 584.708 424.448 566.338C459.435 549.383 495.831 464.274 485.608 435.999C504.162 430.232 522.505 431.963 541.762 434.901C537.353 447.112 529.743 477.172 540.692 479.779C538.682 539.461 594.071 576.7 645.132 552.217C689.327 531.873 704.783 467.479 699.375 428.393C704.877 438.818 751.072 427.468 729.538 417.671" fill="#B8860B"/>
<path d="M545.581 479.63L544.003 475.955L541.057 477.22L541.65 480.371L545.581 479.63ZM550.246 470.961L546.246 470.981L546.247 471.154L546.263 471.326L550.246 470.961ZM576.643 414.956L574.576 411.532L574.574 411.533L576.643 414.956ZM644.441 401.748L644.389 405.747L644.462 405.748L644.535 405.747L644.441 401.748ZM484.622 433.212L480.881 434.629L482.661 439.328L486.842 436.54L484.622 433.212ZM462.978 408.98L463.093 404.982L460.986 412.449L462.978 408.98ZM566.034 404.137L568.257 407.462L580.885 399.021L565.738 400.148L566.034 404.137ZM545.288 427.327L543.434 430.872L546.985 432.728L548.836 429.175L545.288 427.327ZM319.463 536.083L322.848 533.953L322.806 533.886L322.762 533.821L319.463 536.083ZM313.369 421.698L311.103 418.402L310.73 418.659L310.423 418.992L313.369 421.698ZM399.573 409.06L399.626 405.06L399.571 405.06L399.516 405.061L399.573 409.06ZM697.639 420.625L693.75 421.558L694.89 426.312L699.324 424.253L697.639 420.625ZM674.238 392.649L671.134 395.172L671.752 395.932L672.65 396.32L674.238 392.649ZM668.664 390.42L667.533 394.257L668.193 394.451L668.88 394.414L668.664 390.42ZM584.25 394.899L584.58 398.886L585.025 398.849L585.45 398.715L584.25 394.899ZM457.069 405.776L455.457 409.436L456.445 409.872L457.518 409.751L457.069 405.776ZM291.828 428.585L291.248 432.543L295.106 433.109L295.77 429.266L291.828 428.585ZM258.983 429.776L258.327 433.722L260.637 434.106L262.103 432.28L258.983 429.776ZM85.43 439.357L85.0223 435.378L84.8699 435.394L84.7191 435.421L85.43 439.357ZM79.9423 469.691L80.0359 473.69L80.5114 473.679L80.9711 473.556L79.9423 469.691ZM92.0707 451.055L92.4341 455.039L92.4654 455.036L92.4967 455.033L92.0707 451.055ZM257.52 435.729L261.438 436.534L262.443 431.641L257.45 431.729L257.52 435.729ZM295.088 440.285L296.876 436.707L291.707 434.125L291.11 439.871L295.088 440.285ZM295.344 440.391L299.202 441.447L300.116 438.107L296.942 436.724L295.344 440.391ZM311.796 547.965L308.669 550.459L308.71 550.511L308.753 550.562L311.796 547.965ZM424.448 566.338L422.704 562.739L422.444 562.864L422.205 563.026L424.448 566.338ZM485.608 435.999L484.42 432.179L480.422 433.422L481.846 437.359L485.608 435.999ZM541.762 434.901L545.524 436.259L547.177 431.68L542.365 430.946L541.762 434.901ZM540.692 479.779L544.689 479.914L544.799 476.646L541.618 475.888L540.692 479.779ZM645.132 552.217L643.46 548.584L643.431 548.597L643.403 548.611L645.132 552.217ZM699.375 428.393L702.913 426.526L695.413 428.941L699.375 428.393ZM679.348 467.36C672.073 515.619 643.338 541.232 615.416 543.843C587.792 546.426 558.508 526.649 549.512 478.89L541.65 480.371C551.179 530.962 583.288 554.882 616.161 551.808C648.734 548.762 679.599 519.362 687.259 468.553L679.348 467.36ZM547.159 483.306C549.202 482.429 551.226 481.005 552.613 478.726C554.005 476.438 554.512 473.687 554.23 470.597L546.263 471.326C546.427 473.115 546.088 474.06 545.779 474.568C545.465 475.084 544.933 475.555 544.003 475.955L547.159 483.306ZM554.246 470.942C554.144 450.164 560.728 429.251 578.712 418.379L574.574 411.533C553.124 424.5 546.138 448.893 546.246 470.981L554.246 470.942ZM578.71 418.381C598.029 406.719 620.84 405.438 644.389 405.747L644.494 397.748C620.886 397.437 596.007 398.595 574.576 411.532L578.71 418.381ZM644.535 405.747C655.257 405.496 662.812 407.516 668.131 410.785C673.402 414.024 676.824 418.701 678.937 424.446C683.273 436.235 681.955 452.088 679.361 467.283L687.246 468.63C689.839 453.445 691.588 435.668 686.445 421.685C683.819 414.544 679.365 408.299 672.32 403.97C665.324 399.67 656.123 397.474 644.348 397.749L644.535 405.747ZM529.424 420.874C515.353 420.292 496.249 420.65 482.403 429.885L486.842 436.54C498.295 428.901 514.922 428.281 529.094 428.867L529.424 420.874ZM488.363 431.796C484.504 421.605 474.761 411.134 464.97 405.512L460.986 412.449C469.455 417.312 477.785 426.453 480.881 434.629L488.363 431.796ZM462.864 412.979C497.061 413.96 532.264 410.659 566.331 408.126L565.738 400.148C531.427 402.699 496.766 405.948 463.093 404.982L462.864 412.979ZM563.811 400.811C555.085 406.644 547.009 415.365 541.74 425.479L548.836 429.175C553.465 420.287 560.616 412.57 568.257 407.462L563.811 400.811ZM547.142 423.783C544.165 422.226 540.766 421.619 537.767 421.323C534.87 421.037 531.594 420.998 529.488 420.877L529.029 428.864C531.784 429.023 534.228 429.012 536.981 429.284C539.634 429.546 541.819 430.027 543.434 430.872L547.142 423.783ZM463.18 477.323C453.534 509.883 440.409 530.311 426.313 542.587C412.276 554.812 397.015 559.185 382.551 559.186C368.003 559.187 354.184 554.756 343.316 549.244C337.894 546.494 333.269 543.506 329.715 540.736C326.086 537.907 323.816 535.492 322.848 533.953L316.077 538.213C317.773 540.908 320.888 543.998 324.797 547.045C328.781 550.152 333.846 553.411 339.698 556.379C351.376 562.302 366.438 567.187 382.552 567.186C398.749 567.185 415.931 562.237 431.567 548.62C447.143 535.055 460.919 513.121 470.851 479.596L463.18 477.323ZM322.762 533.821C313.761 520.695 308.122 497.521 306.924 474.999C306.33 463.823 306.844 453.045 308.49 444.034C310.161 434.884 312.901 428.119 316.314 424.405L310.423 418.992C305.465 424.387 302.379 432.971 300.62 442.596C298.836 452.36 298.316 463.784 298.935 475.424C300.165 498.531 305.944 523.441 316.164 538.345L322.762 533.821ZM315.635 424.995C326.76 417.347 340.399 414.372 355.12 413.343C370.05 412.299 384.995 413.269 399.63 413.06L399.516 405.061C385.84 405.256 369.665 404.307 354.562 405.363C339.25 406.433 323.943 409.576 311.103 418.402L315.635 424.995ZM399.52 413.06C425.456 413.403 446.443 417.427 458.345 427.08C464.124 431.766 467.801 437.812 468.904 445.715C470.026 453.744 468.528 463.986 463.305 476.966L470.726 479.953C476.258 466.206 478.208 454.496 476.827 444.609C475.429 434.596 470.653 426.762 463.384 420.866C449.19 409.354 425.702 405.406 399.626 405.06L399.52 413.06ZM730.047 413.703C719.244 412.318 706.918 411.905 695.955 416.997L699.324 424.253C708.143 420.157 718.554 420.295 729.029 421.638L730.047 413.703ZM701.529 419.691C698.179 405.728 687.733 394.128 675.826 388.978L672.65 396.32C682.334 400.509 691.009 410.134 693.75 421.558L701.529 419.691ZM677.341 390.125C677.248 390.01 677.158 389.891 677.043 389.732C676.95 389.603 676.773 389.355 676.604 389.137C676.219 388.641 675.606 387.936 674.628 387.374C672.826 386.337 670.653 386.307 668.448 386.426L668.88 394.414C669.901 394.359 670.471 394.379 670.779 394.414C671.063 394.447 670.923 394.471 670.641 394.309C670.336 394.134 670.197 393.93 670.283 394.04C670.349 394.125 670.406 394.207 670.569 394.431C670.711 394.627 670.901 394.886 671.134 395.172L677.341 390.125ZM669.795 386.583C641.307 378.187 609.751 382.686 583.05 391.084L585.45 398.715C611.424 390.546 641.206 386.498 667.533 394.257L669.795 386.583ZM583.921 390.913C542.439 394.339 498.644 397.059 456.621 401.801L457.518 409.751C499.385 405.026 542.87 402.33 584.58 398.886L583.921 390.913ZM458.681 402.115C448.336 397.559 433.112 394.095 416.185 392.07C399.193 390.038 380.201 389.422 362.192 390.708C344.233 391.991 326.995 395.183 313.65 400.92C300.404 406.616 290.072 415.258 287.887 427.904L295.77 429.266C297.269 420.588 304.523 413.553 316.81 408.27C329 403.029 345.244 399.939 362.762 398.688C380.231 397.44 398.712 398.037 415.235 400.014C431.823 401.998 446.156 405.34 455.457 409.436L458.681 402.115ZM292.409 424.628C290.329 424.323 287.848 423.685 284.831 422.948C281.924 422.237 278.635 421.466 275.337 421.061C268.864 420.268 261.102 420.746 255.864 427.272L262.103 432.28C264.653 429.102 268.679 428.305 274.364 429.002C277.145 429.343 280.027 430.009 282.931 430.719C285.724 431.402 288.692 432.168 291.248 432.543L292.409 424.628ZM259.639 425.83C230.573 420.998 201.132 421.957 171.91 424.819C157.296 426.25 142.687 428.164 128.197 430.079C113.685 431.996 99.2981 433.915 85.0223 435.378L85.8377 443.336C100.253 441.859 114.764 439.924 129.245 438.01C143.749 436.093 158.229 434.197 172.689 432.781C201.614 429.948 230.259 429.056 258.327 433.722L259.639 425.83ZM84.7191 435.421C79.9168 436.288 75.9696 439.214 73.0882 442.705C70.1985 446.207 68.1552 450.535 67.2157 454.782C66.2938 458.95 66.3264 463.578 68.3133 467.346C70.4822 471.459 74.5957 473.817 80.0359 473.69L79.8486 465.692C77.0909 465.757 75.9859 464.745 75.3899 463.615C74.6117 462.139 74.3327 459.648 75.0268 456.51C75.7032 453.452 77.2033 450.288 79.2585 447.797C81.322 445.297 83.7213 443.73 86.1409 443.293L84.7191 435.421ZM80.9711 473.556C82.725 473.09 84.2321 472.262 85.4334 471.057C86.6175 469.869 87.3276 468.493 87.7701 467.184C88.5758 464.8 88.66 461.94 88.7965 460.189C88.965 458.029 89.2097 456.893 89.6338 456.21C89.8309 455.892 90.2905 455.234 92.4341 455.039L91.7073 447.072C87.6449 447.442 84.6377 449.09 82.8373 451.99C81.264 454.524 80.9807 457.516 80.8207 459.567C80.6289 462.026 80.5844 463.459 80.1912 464.623C80.0343 465.087 79.8773 465.299 79.7682 465.408C79.6764 465.5 79.464 465.679 78.9135 465.826L80.9711 473.556ZM92.4967 455.033C148.108 449.076 201.897 440.709 257.591 439.728L257.45 431.729C201.281 432.718 146.762 441.175 91.6447 447.078L92.4967 455.033ZM253.602 434.924C253.04 437.661 254.08 439.995 255.673 441.647C257.135 443.163 259.117 444.202 261.052 444.947C264.974 446.456 270.13 447.288 275.089 447.623C280.09 447.961 285.255 447.818 289.313 447.191C291.311 446.882 293.267 446.423 294.848 445.723C295.637 445.374 296.524 444.882 297.288 444.165C298.072 443.429 298.903 442.276 299.067 440.699L291.11 439.871C291.202 438.985 291.661 438.476 291.812 438.333C291.943 438.21 291.937 438.263 291.61 438.408C290.959 438.696 289.794 439.022 288.091 439.285C284.748 439.802 280.192 439.95 275.629 439.641C271.025 439.33 266.775 438.577 263.925 437.481C262.474 436.922 261.729 436.402 261.432 436.094C261.265 435.921 261.514 436.164 261.438 436.534L253.602 434.924ZM293.301 443.863C293.516 443.971 293.702 444.043 293.764 444.067C293.78 444.073 293.798 444.08 293.805 444.083C293.815 444.087 293.816 444.087 293.816 444.087C293.815 444.087 293.786 444.076 293.745 444.058L296.942 436.724C296.859 436.688 296.788 436.66 296.744 436.642C296.722 436.634 296.702 436.626 296.69 436.621C296.675 436.616 296.672 436.614 296.667 436.613C296.664 436.611 296.668 436.613 296.675 436.616C296.682 436.619 296.696 436.624 296.713 436.631C296.747 436.646 296.805 436.671 296.876 436.707L293.301 443.863ZM291.485 439.335C286.487 457.604 286.284 479.643 289.49 499.815C292.684 519.911 299.362 538.789 308.669 550.459L314.923 545.471C306.841 535.336 300.482 518.009 297.391 498.56C294.312 479.187 294.579 458.342 299.202 441.447L291.485 439.335ZM308.753 550.562C321.79 565.84 344.233 575.301 366.483 578.701C388.675 582.093 411.938 579.643 426.692 569.65L422.205 563.026C409.837 571.404 388.955 574.043 367.692 570.793C346.487 567.553 326.165 558.642 314.839 545.369L308.753 550.562ZM426.193 569.938C435.767 565.298 445.061 556.224 453.392 545.209C461.777 534.123 469.431 520.744 475.626 507.064C481.819 493.385 486.61 479.282 489.202 466.717C491.758 454.329 492.317 442.791 489.369 434.639L481.846 437.359C484.01 443.345 483.853 453.049 481.367 465.101C478.917 476.976 474.339 490.511 468.338 503.764C462.338 517.014 454.972 529.858 447.012 540.383C438.998 550.978 430.623 558.901 422.704 562.739L426.193 569.938ZM486.795 439.819C504.414 434.343 521.968 435.928 541.158 438.855L542.365 430.946C523.042 427.999 503.911 426.122 484.42 432.179L486.795 439.819ZM537.999 433.542C535.725 439.841 532.625 450.72 531.494 460.481C530.934 465.321 530.813 470.231 531.717 474.26C532.612 478.25 534.832 482.496 539.765 483.67L541.618 475.888C541.077 475.759 540.142 475.269 539.523 472.509C538.912 469.786 538.917 465.929 539.441 461.402C540.481 452.429 543.389 442.171 545.524 436.259L537.999 433.542ZM536.694 479.645C534.591 542.093 592.883 581.706 646.862 555.824L643.403 548.611C595.259 571.694 542.773 536.829 544.689 479.914L536.694 479.645ZM646.805 555.851C670.218 545.073 685.687 522.808 694.606 498.722C703.533 474.615 706.137 448.08 703.337 427.845L695.413 428.941C698.021 447.792 695.601 472.998 687.104 495.944C678.598 518.914 664.241 539.018 643.46 548.584L646.805 555.851ZM695.838 430.26C697.149 432.746 699.465 434.207 701.705 435.064C703.976 435.932 706.598 436.351 709.229 436.488C714.5 436.763 720.565 435.944 725.706 434.458C728.286 433.712 730.752 432.765 732.831 431.625C734.821 430.534 736.869 429.046 738.099 427.027C738.749 425.96 739.214 424.67 739.222 423.214C739.23 421.742 738.77 420.387 738.018 419.213C736.606 417.011 734.123 415.362 731.195 414.03L727.881 421.311C730.336 422.428 731.12 423.277 731.283 423.531C731.317 423.585 731.221 423.446 731.222 423.17C731.224 422.908 731.312 422.792 731.268 422.864C731.11 423.124 730.499 423.781 728.986 424.61C727.561 425.391 725.676 426.139 723.484 426.773C719.08 428.046 713.911 428.722 709.646 428.499C707.509 428.387 705.787 428.059 704.563 427.591C703.308 427.111 702.976 426.647 702.913 426.526L695.838 430.26Z" fill="black"/>
</svg>
