<svg width="433" height="183" viewBox="0 0 433 183" fill="none" xmlns="http://www.w3.org/2000/svg">
<path d="M24.908 129.852L0.5 152V0.579956H24.908V129.852ZM64.344 152H0.5L24.908 129.852H64.344V152Z" fill="#1B1B1B"/>
<path d="M160.857 152H88.5372V0.579956H158.371C168.165 0.579956 176.602 1.93596 183.683 4.64796C190.765 7.35996 196.189 11.5033 199.955 17.078C203.722 22.6526 205.605 29.734 205.605 38.322C205.605 47.0606 203.119 54.2926 198.147 60.018C193.326 65.7433 186.019 69.3593 176.225 70.866V72.674C187.827 74.03 196.49 78.1733 202.215 85.104C208.091 92.0346 211.029 100.472 211.029 110.416C211.029 119.004 209.071 126.387 205.153 132.564C201.236 138.741 195.511 143.563 187.977 147.028C180.595 150.343 171.555 152 160.857 152ZM112.945 83.748V129.852H160.179C169.37 129.852 175.999 128.27 180.067 125.106C184.286 121.942 186.395 115.915 186.395 107.026C186.395 97.986 184.286 91.884 180.067 88.72C175.849 85.4053 169.219 83.748 160.179 83.748C151.139 83.748 112.945 83.748 112.945 83.748ZM112.945 22.502V63.408H156.111C165.151 63.408 171.63 61.9766 175.547 59.114C179.465 56.1006 181.423 50.752 181.423 43.068C181.423 35.2333 179.54 29.8846 175.773 27.022C172.157 24.0086 165.829 22.502 156.789 22.502H112.945Z" fill="#1B1B1B"/>
<path d="M298.444 152H226.124V0.579956H295.958C305.751 0.579956 314.188 1.93596 321.27 4.64796C328.351 7.35996 333.775 11.5033 337.542 17.078C341.308 22.6526 343.192 29.734 343.192 38.322C343.192 47.0606 340.706 54.2926 335.734 60.018C330.912 65.7433 323.605 69.3593 313.812 70.866V72.674C325.413 74.03 334.076 78.1733 339.802 85.104C345.678 92.0346 348.616 100.472 348.616 110.416C348.616 119.004 346.657 126.387 342.74 132.564C338.822 138.741 333.097 143.563 325.564 147.028C318.181 150.343 309.141 152 298.444 152ZM250.532 83.748V129.852H297.766C306.956 129.852 313.586 128.27 317.654 125.106C321.872 121.942 323.982 115.915 323.982 107.026C323.982 97.986 321.872 91.884 317.654 88.72C313.435 85.4053 306.806 83.748 297.766 83.748H250.532ZM250.532 22.502V63.408H293.698C302.738 63.408 309.216 61.9766 313.134 59.114C317.051 56.1006 319.01 50.752 319.01 43.068C319.01 35.2333 317.126 29.8846 313.36 27.022C309.744 24.0086 303.416 22.502 294.376 22.502H250.532Z" fill="#1B1B1B"/>
<path d="M324.026 181.809C317.602 183.71 311.938 183.335 307.033 180.684C302.169 177.963 298.515 173.507 296.07 167.315C293.626 161.123 293.346 155.698 295.23 151.039C297.174 146.362 301.236 143.108 307.418 141.279C311.418 140.096 314.91 139.854 317.893 140.553C320.917 141.182 323.265 142.245 324.939 143.742L327.394 143.016L330.885 153.146L329.157 153.657C328.287 151.454 327.088 149.787 325.559 148.657C324.03 147.527 322.222 146.89 320.135 146.746C318.047 146.602 315.67 146.924 313.004 147.713C310.822 148.359 309.036 149.151 307.647 150.089C306.318 151.01 305.336 152.121 304.699 153.423C304.123 154.707 303.924 156.26 304.102 158.083C304.34 159.887 304.936 161.996 305.888 164.41C306.821 166.771 307.84 168.755 308.948 170.361C310.096 171.896 311.362 173.045 312.745 173.808C314.169 174.5 315.762 174.849 317.524 174.855C319.287 174.861 321.228 174.55 323.349 173.923C326.016 173.134 328.124 172.129 329.673 170.909C331.201 169.636 332.17 168.148 332.581 166.445C332.991 164.741 332.772 162.814 331.922 160.662L333.65 160.151L337.895 169.619L336.076 170.157C335.937 172.718 334.853 175.031 332.826 177.096C330.838 179.091 327.905 180.662 324.026 181.809ZM348.078 173.813L338.988 176.503L335.322 167.216L334.19 166.408L317.445 123.985L327.263 121.08L348.078 173.813Z" fill="#2E667E"/>
<path d="M377.783 165.903C372.874 167.356 368.451 167.727 364.516 167.016C360.56 166.253 357.193 164.583 354.416 162.005C351.618 159.376 349.422 156.041 347.827 152.001C346.233 147.96 345.713 144.159 346.269 140.595C346.886 137.014 348.5 133.9 351.11 131.252C353.699 128.552 357.236 126.539 361.72 125.212C365.781 124.01 369.626 123.634 373.255 124.084C376.925 124.463 380.105 125.661 382.796 127.678C385.548 129.676 387.628 132.46 389.036 136.028C389.45 137.077 389.794 138.118 390.066 139.151C390.378 140.114 390.598 140.928 390.725 141.593L353.271 152.675L351.034 147.008L380.489 138.293L379.799 139.376C379.089 136.891 378.009 135.013 376.56 133.742C375.171 132.454 373.423 131.711 371.315 131.514C369.268 131.3 366.91 131.587 364.244 132.376C359.456 133.793 356.598 135.811 355.669 138.429C354.719 140.996 354.958 144.089 356.388 147.71L357.32 150.071C358.355 152.695 359.599 154.817 361.051 156.438C362.543 157.989 364.405 158.933 366.636 159.269C368.867 159.605 371.618 159.289 374.891 158.32C378.709 157.191 381.199 155.868 382.36 154.352C383.522 152.837 383.761 151.213 383.077 149.482L382.829 148.852L392.556 145.974L392.836 146.682C393.892 149.358 393.965 151.944 393.055 154.44C392.125 156.884 390.362 159.105 387.766 161.103C385.232 163.084 381.904 164.684 377.783 165.903Z" fill="#2E667E"/>
<path d="M430.35 149.47L417.896 153.155L384.365 119.391L395.273 116.163L420.696 143.273L421.332 143.085L422.364 108.147L433 105L430.35 149.47Z" fill="#2E667E"/>
</svg>
