<svg class="border shadow-md" viewBox="0 0 1351.68 760.32" style="width: 1351.68px; height: 760.32px;" xmlns="http://www.w3.org/2000/svg" preserveAspectRatio="none"><rect class="bg" id="bg" x="0" y="0" width="1351.68" height="760.32" fill="#F5F5F5"></rect><g transform="rotate(229 675.84 380.16)"><path d="M -337.92 440.32 S -205.00 331.32
            0.00 440.32 110.92 228.32
            337.92 440.32 496.88 145.32
            675.84 440.32 796.76 223.32
            1013.76 440.32 1150.68 347.32
            1351.68 440.32 1405.60 294.32
            1689.60 440.32 h 110 V 1360.3200000000002 H -337.92 Z" fill="none" stroke="#38A3A5" stroke-width="50"></path><path d="M -337.92 345.00 S -268.00 182.50
            0.00 345.00 158.96 182.50
            337.92 345.00 496.88 73.00
            675.84 345.00 673.76 182.50
            1013.76 345.00 1172.72 110.00
            1351.68 345.00 1510.64 155.00
            1689.60 345.00 h 110 V -600 H -337.92 Z" fill="none" stroke="#C4C4C4" stroke-width="50"></path></g></svg>